<svg width="16" height="16" viewBox="0 0 16 16" fill="none" xmlns="http://www.w3.org/2000/svg">
<path fill-rule="evenodd" clip-rule="evenodd" d="M9.4 4C9.17909 4 9 3.82091 9 3.6C9 2.71634 9.71634 2 10.6 2H11C12.1046 2 13 2.89543 13 4V6.19098C13 6.56267 12.6088 6.80442 12.2764 6.6382L12.1056 6.55279C11.428 6.214 11 5.52148 11 4.76393V4H9.4ZM9.6 12C9.82091 12 10 11.8209 10 11.6C10 10.7163 9.28366 10 8.4 10H8C6.34315 10 5 8.65685 5 7V4.4C5 4.17909 4.82091 4 4.6 4C3.71634 4 3 4.71634 3 5.6V7C3 9.76142 5.23858 12 8 12H9.6Z" fill="black"/>
<path d="M5 13.5C5 13.7761 4.77614 14 4.5 14H4C3.44772 14 3 13.5523 3 13L3 11.809C3 11.4373 3.39116 11.1956 3.72361 11.3618L3.89443 11.4472C4.572 11.786 5 12.4785 5 13.2361V13.5Z" fill="black"/>
<path d="M11.6667 14C11.2985 14 11 13.7015 11 13.3333V11C11 9.34315 9.65685 8 8 8H7.33333C6.59695 8 6 7.40305 6 6.66667C6 6.29848 6.29848 6 6.66667 6L8 6C10.7614 6 13 8.23858 13 11V12.6667C13 13.403 12.403 14 11.6667 14Z" fill="black"/>
</svg>
