<svg width="16" height="16" viewBox="0 0 16 16" fill="none" xmlns="http://www.w3.org/2000/svg">
<path fill-rule="evenodd" clip-rule="evenodd" d="M8 12C11.866 12 15 8.86599 15 5V1L11 5V6H12.9C12.4367 8.28224 10.419 10 8 10C6.69378 10 5.58254 10.8348 5.17071 12H8ZM1 7.34267C1.57023 6.63798 2.24472 6.02112 3 5.51555V5V2H1V5V7.34267Z" fill="black"/>
<path fill-rule="evenodd" clip-rule="evenodd" d="M10 6H8C4.13401 6 1 9.13401 1 13V15H3L3 13C3 10.2386 5.23858 8 8 8H10V6ZM13 12.4845V13L13 15H15V13V10.6573C14.4298 11.362 13.7553 11.9789 13 12.4845Z" fill="black"/>
</svg>
